<mxfile host="app.diagrams.net" agent="Mozilla/5.0 (Windows NT 10.0; Win64; x64) AppleWebKit/537.36 (KHTML, like Gecko) Chrome/132.0.0.0 Safari/537.36 OPR/117.0.0.0" version="26.0.16">
  <diagram name="Pagina-1" id="srYH7TQU2fdPxsNu1GvC">
    <mxGraphModel dx="1008" dy="587" grid="1" gridSize="10" guides="1" tooltips="1" connect="1" arrows="1" fold="1" page="1" pageScale="1" pageWidth="827" pageHeight="1169" math="0" shadow="0">
      <root>
        <mxCell id="0" />
        <mxCell id="1" parent="0" />
        <mxCell id="y47XHty81okqig3s6LL2-1" value="" style="ellipse;html=1;shape=startState;fillColor=#000000;strokeColor=#ff0000;" vertex="1" parent="1">
          <mxGeometry x="390" y="100" width="30" height="30" as="geometry" />
        </mxCell>
        <mxCell id="y47XHty81okqig3s6LL2-2" value="" style="edgeStyle=orthogonalEdgeStyle;html=1;verticalAlign=bottom;endArrow=open;endSize=8;strokeColor=#ff0000;rounded=0;entryX=0.5;entryY=0;entryDx=0;entryDy=0;" edge="1" source="y47XHty81okqig3s6LL2-1" parent="1" target="y47XHty81okqig3s6LL2-3">
          <mxGeometry relative="1" as="geometry">
            <mxPoint x="405" y="190" as="targetPoint" />
            <Array as="points">
              <mxPoint x="405" y="160" />
              <mxPoint x="406" y="160" />
              <mxPoint x="406" y="190" />
            </Array>
          </mxGeometry>
        </mxCell>
        <mxCell id="y47XHty81okqig3s6LL2-3" value="Upgrade kopen" style="rounded=1;whiteSpace=wrap;html=1;arcSize=40;fontColor=#000000;fillColor=#ffffc0;strokeColor=#ff0000;" vertex="1" parent="1">
          <mxGeometry x="350" y="190" width="120" height="40" as="geometry" />
        </mxCell>
        <mxCell id="y47XHty81okqig3s6LL2-4" value="" style="edgeStyle=orthogonalEdgeStyle;html=1;verticalAlign=bottom;endArrow=open;endSize=8;strokeColor=#ff0000;rounded=0;entryX=0.5;entryY=0;entryDx=0;entryDy=0;" edge="1" source="y47XHty81okqig3s6LL2-3" parent="1" target="y47XHty81okqig3s6LL2-5">
          <mxGeometry relative="1" as="geometry">
            <mxPoint x="405" y="290" as="targetPoint" />
          </mxGeometry>
        </mxCell>
        <mxCell id="y47XHty81okqig3s6LL2-5" value="Genoeg koekjes?" style="rhombus;whiteSpace=wrap;html=1;fontColor=#000000;fillColor=#ffffc0;strokeColor=#ff0000;fontSize=7;" vertex="1" parent="1">
          <mxGeometry x="370" y="290" width="80" height="40" as="geometry" />
        </mxCell>
        <mxCell id="y47XHty81okqig3s6LL2-6" value="no" style="edgeStyle=orthogonalEdgeStyle;html=1;align=left;verticalAlign=bottom;endArrow=open;endSize=8;strokeColor=#ff0000;rounded=0;" edge="1" source="y47XHty81okqig3s6LL2-5" parent="1">
          <mxGeometry x="-1" relative="1" as="geometry">
            <mxPoint x="550" y="310" as="targetPoint" />
          </mxGeometry>
        </mxCell>
        <mxCell id="y47XHty81okqig3s6LL2-7" value="yes" style="edgeStyle=orthogonalEdgeStyle;html=1;align=left;verticalAlign=top;endArrow=open;endSize=8;strokeColor=#ff0000;rounded=0;" edge="1" source="y47XHty81okqig3s6LL2-5" parent="1">
          <mxGeometry x="-1" relative="1" as="geometry">
            <mxPoint x="410" y="390" as="targetPoint" />
          </mxGeometry>
        </mxCell>
        <mxCell id="y47XHty81okqig3s6LL2-9" value="Alert: Niet genoeg koekjes" style="rounded=1;whiteSpace=wrap;html=1;arcSize=40;fontColor=#000000;fillColor=#ffffc0;strokeColor=#ff0000;" vertex="1" parent="1">
          <mxGeometry x="550" y="290" width="120" height="40" as="geometry" />
        </mxCell>
        <mxCell id="y47XHty81okqig3s6LL2-10" value="" style="edgeStyle=orthogonalEdgeStyle;html=1;verticalAlign=bottom;endArrow=open;endSize=8;strokeColor=#ff0000;rounded=0;entryX=1;entryY=0.5;entryDx=0;entryDy=0;" edge="1" source="y47XHty81okqig3s6LL2-9" parent="1" target="y47XHty81okqig3s6LL2-11">
          <mxGeometry relative="1" as="geometry">
            <mxPoint x="610" y="390" as="targetPoint" />
          </mxGeometry>
        </mxCell>
        <mxCell id="y47XHty81okqig3s6LL2-11" value="" style="ellipse;html=1;shape=endState;fillColor=#000000;strokeColor=#ff0000;" vertex="1" parent="1">
          <mxGeometry x="520" y="410" width="30" height="30" as="geometry" />
        </mxCell>
        <mxCell id="y47XHty81okqig3s6LL2-15" value="Cookies -= Price" style="rounded=1;whiteSpace=wrap;html=1;arcSize=40;fontColor=#000000;fillColor=#ffffc0;strokeColor=#ff0000;" vertex="1" parent="1">
          <mxGeometry x="350" y="380" width="120" height="40" as="geometry" />
        </mxCell>
        <mxCell id="y47XHty81okqig3s6LL2-16" value="" style="edgeStyle=orthogonalEdgeStyle;html=1;verticalAlign=bottom;endArrow=open;endSize=8;strokeColor=#ff0000;rounded=0;entryX=0.5;entryY=0;entryDx=0;entryDy=0;" edge="1" source="y47XHty81okqig3s6LL2-15" parent="1" target="y47XHty81okqig3s6LL2-17">
          <mxGeometry relative="1" as="geometry">
            <mxPoint x="410" y="480" as="targetPoint" />
          </mxGeometry>
        </mxCell>
        <mxCell id="y47XHty81okqig3s6LL2-17" value="AutoClickers += 1&amp;nbsp;" style="rounded=1;whiteSpace=wrap;html=1;arcSize=40;fontColor=#000000;fillColor=#ffffc0;strokeColor=#ff0000;" vertex="1" parent="1">
          <mxGeometry x="351" y="430" width="120" height="40" as="geometry" />
        </mxCell>
        <mxCell id="y47XHty81okqig3s6LL2-18" value="" style="edgeStyle=orthogonalEdgeStyle;html=1;verticalAlign=bottom;endArrow=open;endSize=8;strokeColor=#ff0000;rounded=0;entryX=0.5;entryY=1;entryDx=0;entryDy=0;" edge="1" source="y47XHty81okqig3s6LL2-17" parent="1" target="y47XHty81okqig3s6LL2-11">
          <mxGeometry relative="1" as="geometry">
            <mxPoint x="410" y="530" as="targetPoint" />
          </mxGeometry>
        </mxCell>
      </root>
    </mxGraphModel>
  </diagram>
</mxfile>
